solid Cartesiana_Estructural
facet normal -1.5331121730706977e-08 8.307279752971071e-12 1.0
  outer loop
    vertex 496.57674248243353 111.57680113369776 51.41234654291663
    vertex 536.4767308945372 222.67680529529684 51.4123471537087
    vertex 496.5767308945397 222.67680113370662 51.412346541996946
  endloop
endfacet
facet normal -1.5331121730706977e-08 8.307279752971071e-12 1.0
  outer loop
    vertex 536.4767308945372 222.67680529529684 51.4123471537087
    vertex 496.57674248243353 111.57680113369776 51.41234654291663
    vertex 536.4767424824341 111.57680529529337 51.412347154628385
  endloop
endfacet
facet normal 1.5331121730706775e-08 -8.305359265018601e-12 -1.0
  outer loop
    vertex 536.4767311996266 222.67680529513166 31.51234715370958
    vertex 496.57674278752296 111.57680113353253 31.512346542916735
    vertex 496.576731199629 222.67680113354155 31.51234654199782
  endloop
endfacet
facet normal 1.5331121730706775e-08 -8.305359265018601e-12 -1.0
  outer loop
    vertex 496.57674278752296 111.57680113353253 31.512346542916735
    vertex 536.4767311996266 222.67680529513166 31.51234715370958
    vertex 536.4767427875236 111.57680529512807 31.512347154628493
  endloop
endfacet
facet normal 0.9999999999999946 1.04300804884519e-07 1.5331121729840432e-08
  outer loop
    vertex 536.4767311996266 222.67680529513166 31.51234715370958
    vertex 536.4767424824341 111.57680529529337 51.412347154628385
    vertex 536.4767427875236 111.57680529512807 31.512347154628493
  endloop
endfacet
facet normal 0.9999999999999946 1.04300804884519e-07 1.5331121729840432e-08
  outer loop
    vertex 536.4767424824341 111.57680529529337 51.412347154628385
    vertex 536.4767311996266 222.67680529513166 31.51234715370958
    vertex 536.4767308945372 222.67680529529684 51.4123471537087
  endloop
endfacet
facet normal 1.0430064030046975e-07 -0.9999999999999946 8.307198371821391e-12
  outer loop
    vertex 536.4767427875236 111.57680529512807 31.512347154628493
    vertex 534.8396893792136 111.57680512439596 33.149400512742645
    vertex 498.21379614563705 111.57680130429186 33.14939995122661
  endloop
endfacet
facet normal 1.0430064030046975e-07 -0.9999999999999946 8.307198371821391e-12
  outer loop
    vertex 534.8396893792136 111.57680512439596 33.149400512742645
    vertex 536.4767427875236 111.57680529512807 31.512347154628493
    vertex 536.4767424824341 111.57680529529337 51.412347154628385
  endloop
endfacet
facet normal 1.0430064030046975e-07 -0.9999999999999946 8.307198371821391e-12
  outer loop
    vertex 534.8396893792136 111.57680512439596 33.149400512742645
    vertex 536.4767424824341 111.57680529529337 51.412347154628385
    vertex 534.8396891243201 111.57680512453405 49.7752937463185
  endloop
endfacet
facet normal 1.0430064030046975e-07 -0.9999999999999946 8.307198371821391e-12
  outer loop
    vertex 534.8396891243201 111.57680512453405 49.7752937463185
    vertex 536.4767424824341 111.57680529529337 51.412347154628385
    vertex 496.57674248243353 111.57680113369776 51.41234654291663
  endloop
endfacet
facet normal 1.0430064030046975e-07 -0.9999999999999946 8.307198371821391e-12
  outer loop
    vertex 496.57674278752296 111.57680113353253 31.512346542916735
    vertex 498.21379614563705 111.57680130429186 33.14939995122661
    vertex 496.57674248243353 111.57680113369776 51.41234654291663
  endloop
endfacet
facet normal 1.0430064030046975e-07 -0.9999999999999946 8.307198371821391e-12
  outer loop
    vertex 498.21379614563705 111.57680130429186 33.14939995122661
    vertex 496.57674278752296 111.57680113353253 31.512346542916735
    vertex 536.4767427875236 111.57680529512807 31.512347154628493
  endloop
endfacet
facet normal 1.0430064030046975e-07 -0.9999999999999946 8.307198371821391e-12
  outer loop
    vertex 496.57674248243353 111.57680113369776 51.41234654291663
    vertex 498.21379614563705 111.57680130429186 33.14939995122661
    vertex 498.21379589074337 111.57680130442988 49.77529318480247
  endloop
endfacet
facet normal 1.0430064030046975e-07 -0.9999999999999946 8.307198371821391e-12
  outer loop
    vertex 496.57674248243353 111.57680113369776 51.41234654291663
    vertex 498.21379589074337 111.57680130442988 49.77529318480247
    vertex 534.8396891243201 111.57680512453405 49.7752937463185
  endloop
endfacet
facet normal -1.0430050912608901e-07 0.9999999999999946 -8.307198369806991e-12
  outer loop
    vertex 496.576731199629 222.67680113354155 31.51234654199782
    vertex 498.21378455783423 222.67680130428445 33.14939995030373
    vertex 536.4767311996266 222.67680529513166 31.51234715370958
  endloop
endfacet
facet normal -1.0430050912608901e-07 0.9999999999999946 -8.307198369806991e-12
  outer loop
    vertex 498.21378455783423 222.67680130428445 33.14939995030373
    vertex 496.576731199629 222.67680113354155 31.51234654199782
    vertex 496.5767308945397 222.67680113370662 51.412346541996946
  endloop
endfacet
facet normal -1.0430050912608901e-07 0.9999999999999946 -8.307198369806991e-12
  outer loop
    vertex 498.21378455783423 222.67680130428445 33.14939995030373
    vertex 496.5767308945397 222.67680113370662 51.412346541996946
    vertex 498.21378430294055 222.67680130442253 49.77529318387959
  endloop
endfacet
facet normal -1.0430050912608901e-07 0.9999999999999946 -8.307198369806991e-12
  outer loop
    vertex 498.21378430294055 222.67680130442253 49.77529318387959
    vertex 496.5767308945397 222.67680113370662 51.412346541996946
    vertex 534.8396775365172 222.6768051245267 49.77529374539562
  endloop
endfacet
facet normal -1.0430050912608901e-07 0.9999999999999946 -8.307198369806991e-12
  outer loop
    vertex 536.4767311996266 222.67680529513166 31.51234715370958
    vertex 534.8396777914108 222.67680512438855 33.14940051181977
    vertex 536.4767308945372 222.67680529529684 51.4123471537087
  endloop
endfacet
facet normal -1.0430050912608901e-07 0.9999999999999946 -8.307198369806991e-12
  outer loop
    vertex 534.8396777914108 222.67680512438855 33.14940051181977
    vertex 536.4767311996266 222.67680529513166 31.51234715370958
    vertex 498.21378455783423 222.67680130428445 33.14939995030373
  endloop
endfacet
facet normal -1.0430050912608901e-07 0.9999999999999946 -8.307198369806991e-12
  outer loop
    vertex 536.4767308945372 222.67680529529684 51.4123471537087
    vertex 534.8396777914108 222.67680512438855 33.14940051181977
    vertex 534.8396775365172 222.6768051245267 49.77529374539562
  endloop
endfacet
facet normal -1.0430050912608901e-07 0.9999999999999946 -8.307198369806991e-12
  outer loop
    vertex 536.4767308945372 222.67680529529684 51.4123471537087
    vertex 534.8396775365172 222.6768051245267 49.77529374539562
    vertex 496.5767308945397 222.67680113370662 51.412346541996946
  endloop
endfacet
facet normal -0.9999999999999946 -1.0430079715755578e-07 -1.5331120525332142e-08
  outer loop
    vertex 496.57674248243353 111.57680113369776 51.41234654291663
    vertex 496.576731199629 222.67680113354155 31.51234654199782
    vertex 496.57674278752296 111.57680113353253 31.512346542916735
  endloop
endfacet
facet normal -0.9999999999999946 -1.0430079715755578e-07 -1.5331120525332142e-08
  outer loop
    vertex 496.576731199629 222.67680113354155 31.51234654199782
    vertex 496.57674248243353 111.57680113369776 51.41234654291663
    vertex 496.5767308945397 222.67680113370662 51.412346541996946
  endloop
endfacet
facet normal -1.533112192962645e-08 8.303570652227757e-12 0.9999999999999999
  outer loop
    vertex 498.21379614563705 111.57680130429186 33.14939995122661
    vertex 534.8396777914108 222.67680512438855 33.14940051181977
    vertex 498.21378455783423 222.67680130428445 33.14939995030373
  endloop
endfacet
facet normal -1.533112192962645e-08 8.303570652227757e-12 0.9999999999999999
  outer loop
    vertex 534.8396777914108 222.67680512438855 33.14940051181977
    vertex 498.21379614563705 111.57680130429186 33.14939995122661
    vertex 534.8396893792136 111.57680512439596 33.149400512742645
  endloop
endfacet
facet normal 1.5331121775638825e-08 -8.303570652243819e-12 -0.9999999999999999
  outer loop
    vertex 534.8396775365172 222.6768051245267 49.77529374539562
    vertex 498.21379589074337 111.57680130442988 49.77529318480247
    vertex 498.21378430294055 222.67680130442253 49.77529318387959
  endloop
endfacet
facet normal 1.5331121775638825e-08 -8.303570652243819e-12 -0.9999999999999999
  outer loop
    vertex 498.21379589074337 111.57680130442988 49.77529318480247
    vertex 534.8396775365172 222.6768051245267 49.77529374539562
    vertex 534.8396891243201 111.57680512453405 49.7752937463185
  endloop
endfacet
facet normal 0.9999999999999946 1.0430064071631082e-07 1.533112558339753e-08
  outer loop
    vertex 498.21378455783423 222.67680130428445 33.14939995030373
    vertex 498.21379589074337 111.57680130442988 49.77529318480247
    vertex 498.21379614563705 111.57680130429186 33.14939995122661
  endloop
endfacet
facet normal 0.9999999999999946 1.0430064071631082e-07 1.533112558339753e-08
  outer loop
    vertex 498.21379589074337 111.57680130442988 49.77529318480247
    vertex 498.21378455783423 222.67680130428445 33.14939995030373
    vertex 498.21378430294055 222.67680130442253 49.77529318387959
  endloop
endfacet
facet normal -0.9999999999999944 -1.043006407163108e-07 -1.5331120155783314e-08
  outer loop
    vertex 534.8396891243201 111.57680512453405 49.7752937463185
    vertex 534.8396777914108 222.67680512438855 33.14940051181977
    vertex 534.8396893792136 111.57680512439596 33.149400512742645
  endloop
endfacet
facet normal -0.9999999999999944 -1.043006407163108e-07 -1.5331120155783314e-08
  outer loop
    vertex 534.8396777914108 222.67680512438855 33.14940051181977
    vertex 534.8396891243201 111.57680512453405 49.7752937463185
    vertex 534.8396775365172 222.6768051245267 49.77529374539562
  endloop
endfacet
endsolid Cartesiana_Estructural
